<svg id="Capa_1" data-name="Capa 1" xmlns="http://www.w3.org/2000/svg" viewBox="0 0 612 545.81"><defs><style>.cls-1{fill:#fff;}</style></defs><title>fax</title><path id="Fax" class="cls-1" d="M587,125.52H512.08V58.07a25,25,0,0,0-25-25H124.9a25,25,0,0,0-25,25v67.44H25a25,25,0,0,0-25,25V395.3a25,25,0,0,0,25,25H99.92V551.93c0,8.33,1.68,14.54,8.12,20.43A24.07,24.07,0,0,0,118.15,578c3.62,1,7.2.93,10.86,0.93H483c3.66,0,7.24.09,10.87-.93A24,24,0,0,0,504,572.34c6.44-5.9,8.11-12.12,8.11-20.45V420.28H587a25,25,0,0,0,25-25V150.5A25,25,0,0,0,587,125.52ZM62.45,213.57a21.86,21.86,0,1,1,21.86-21.86A21.86,21.86,0,0,1,62.45,213.57ZM487.1,553.92H124.9V356.58H487.1V553.92h0Zm0-428.4H124.9V83.05a25,25,0,0,1,25-25H462.12a25,25,0,0,1,25,25Q487.1,104.29,487.1,125.52Z" transform="translate(0 -33.09)"/></svg>