<svg id="Layer_1" data-name="Layer 1" xmlns="http://www.w3.org/2000/svg" viewBox="0 0 120.58 141.99"><defs><style>.cls-1{fill:#f8b80e;}.cls-2{fill:#fff;}</style></defs><title>futurity-color</title><polygon class="cls-1" points="0 0 0 141.99 120.58 141.99 120.58 0 0 0 0 0"/><path class="cls-2" d="M80.48,17l-1.65,0c-4.69,0-9.37,0-14.06,0A10.54,10.54,0,0,0,58,19.47c-2.16,1.77-4.21,3.68-6.31,5.52-3.85,3.38-7.73,6.73-11.55,10.15A11.87,11.87,0,0,0,36,44.27c0,5.18,0,10.37,0,15.55,0,.73,0,.73.76.73H36V125H57.77V82.32H79.58V60.55H57.89V39.24H87.53V17Zm-4.25,2.7h7.56c.71,0,1,.14,1,.66q0,7.64,0,15.28c0,.54-.27.66-1,.65H76.23c-2.93,0-5.86,0-8.79,0s-5.78,0-8.67,0h-.28c-.5,0-.68-.13-.67-.65h0v-.22c0-3,0-6.05,0-9.08a6.55,6.55,0,0,1,6.6-6.62"/><polygon class="cls-2" points="65.16 19.01 62.8 21.37 62.81 21.37 57.23 26.94 57.23 29.31 65.42 21.13 65.41 21.13 67.52 19.02 65.16 19.01"/><polygon class="cls-2" points="73.78 21.37 64.56 30.58 64.5 30.58 58.22 36.85 60.6 36.85 66.17 31.29 66.23 31.29 76.39 21.13 76.39 21.13 78.44 19.07 76.08 19.06 73.77 21.37 73.78 21.37"/><polygon class="cls-2" points="59.93 21.13 61.82 19.24 61.07 19.32 58.07 20.61 57.31 21.37 57.32 21.37 57.23 21.46 57.23 23.83 59.94 21.13 59.93 21.13"/><polygon class="cls-2" points="82.54 36.85 85.75 33.65 85.73 31.29 80.17 36.85 82.54 36.85"/><polygon class="cls-2" points="85.77 36.85 85.76 36.74 85.65 36.85 85.77 36.85"/><polygon class="cls-2" points="84.74 21.37 84.75 21.37 75.53 30.58 75.47 30.58 69.19 36.85 71.57 36.85 77.14 31.29 77.2 31.29 85.68 22.81 85.67 20.44 84.74 21.37"/><polygon class="cls-2" points="60.74 31.29 70.91 21.13 70.9 21.13 72.98 19.05 70.62 19.04 68.28 21.37 68.29 21.37 59.07 30.58 59.02 30.58 57.23 32.36 57.23 34.73 60.68 31.29 60.74 31.29"/><polygon class="cls-2" points="81.54 19.09 79.25 21.37 79.26 21.37 70.05 30.58 69.99 30.58 63.71 36.85 66.08 36.85 71.66 31.29 71.71 31.29 81.88 21.13 81.87 21.13 83.9 19.1 81.54 19.09"/><polygon class="cls-2" points="80.96 30.58 74.68 36.85 77.05 36.85 82.63 31.29 82.68 31.29 85.72 28.26 85.7 25.9 81.02 30.58 80.96 30.58"/></svg>