<svg id="Layer_1" data-name="Layer 1" xmlns="http://www.w3.org/2000/svg" viewBox="0 0 99.97 100.01"><defs><style>.cls-1{fill:#fff;fill-rule:evenodd;}</style></defs><title>rss-white</title><path class="cls-1" d="M14.63,70.67A14.66,14.66,0,1,0,25,75a14.65,14.65,0,0,0-10.37-4.29ZM5.77,31.4A5.16,5.16,0,0,0,1.7,32.79a5.19,5.19,0,0,0-1.7,4v7.13a5.31,5.31,0,0,0,4.85,5.31,51.05,51.05,0,0,1,46,45.94A5.34,5.34,0,0,0,56.13,100h7.13a5.35,5.35,0,0,0,5.34-5.8A68.84,68.84,0,0,0,5.78,31.41ZM5.62,0a5.18,5.18,0,0,0-4,1.45A5.19,5.19,0,0,0,0,5.35v7.13a5.32,5.32,0,0,0,5,5.34A82.32,82.32,0,0,1,82.15,95a5.32,5.32,0,0,0,5.37,5h7.1A5.33,5.33,0,0,0,100,94.32,100.15,100.15,0,0,0,5.62,0Z"/></svg>