<svg id="Layer_1" data-name="Layer 1" xmlns="http://www.w3.org/2000/svg" width="818.8" height="39" viewBox="0 0 818.8 39"><defs><style>.cls-1{fill:none;}.cls-2{fill:#4e2983;}.cls-3{fill:#e4e0ee;}.cls-4{fill:#4e2a84;}.cls-5{fill:#fff;}</style></defs><title>social-media-icons2</title><path class="cls-1" d="M570.2,15.5a4,4,0,1,0,4,4A4,4,0,0,0,570.2,15.5Z"/><rect class="cls-2" x="357.4" y="14.5" width="5.6" height="18.1"/><path class="cls-2" d="M360.2,5.5a3.3,3.3,0,1,0,3.3,3.3A3.33,3.33,0,0,0,360.2,5.5Z"/><path class="cls-2" d="M377.3,14a5.88,5.88,0,0,0-5.3,2.9h-.1V14.4h-5.4V32.5h5.6V23.6c0-2.4.4-4.6,3.4-4.6s2.9,2.7,2.9,4.8v8.8H384V22.7C384,17.8,383,14,377.3,14Z"/><path class="cls-2" d="M342.8,5.1c-4.3-.1-7.3,2.3-8.8,7.4a6.83,6.83,0,0,1,2.3-.5q2.4,0,2.1,2.7a11.83,11.83,0,0,1-2.1,4.7c-1.3,2.1-2.3,3.1-3,3.1s-1.6-1.6-2.3-4.8c-.2-.9-.7-3.3-1.3-7.2-.6-3.6-2.1-5.2-4.5-5-1,.1-2.6,1-4.6,2.8-1.5,1.4-3,2.7-4.6,4.1l1.5,1.9a8.42,8.42,0,0,1,2.5-1.5q1.65,0,3,5.1c.8,3.1,1.7,6.2,2.5,9.3,1.3,3.4,2.8,5.1,4.6,5.1,3,0,6.6-2.8,10.8-8.3,4.1-5.3,6.3-9.5,6.4-12.5C347.6,7.3,346.1,5.2,342.8,5.1Z"/><polygon class="cls-2" points="293.1 13.1 297.4 6.3 288.5 6.3 278.4 21.2 282 21.2 287.7 13.1 293.1 13.1"/><polygon class="cls-2" points="301.5 16.7 292.8 16.7 286.2 26.7 289.7 26.7 291.7 23.4 297.4 23.4 301.5 16.7"/><polygon class="cls-2" points="294.9 31.4 303.3 31.4 306.4 26.3 298.1 26.3 294.9 31.4"/><path class="cls-2" d="M239.9,18.9a13.43,13.43,0,0,0,7.5,12l-6.3-17.4A12.21,12.21,0,0,0,239.9,18.9Z"/><path class="cls-2" d="M262.2,18.2a7.37,7.37,0,0,0-1.1-3.7,5.94,5.94,0,0,1-1.3-3.1A2.33,2.33,0,0,1,262,9h.2a13.15,13.15,0,0,0-9-3.5,13.38,13.38,0,0,0-11.1,6h.9c1.4,0,3.5-.2,3.5-.2a.55.55,0,0,1,.1,1.1,11.92,11.92,0,0,1-1.5.1l4.8,14.4,2.9-8.7-2.1-5.7a11.35,11.35,0,0,1-1.4-.1c-.7,0-.6-1.1.1-1.1,0,0,2.2.2,3.5.2s3.5-.2,3.5-.2a.55.55,0,0,1,.1,1.1,11.92,11.92,0,0,1-1.5.1l4.8,14.3,1.3-4.4A11.37,11.37,0,0,0,262.2,18.2Z"/><path class="cls-2" d="M253.5,20.1l-4,11.6a11.66,11.66,0,0,0,3.8.5,13.17,13.17,0,0,0,4.4-.8c0-.1-.1-.1-.1-.2Z"/><path class="cls-2" d="M265,13.9a14.17,14.17,0,0,1-1,4.8l-4.1,11.7a13.19,13.19,0,0,0,6.6-11.5,13.79,13.79,0,0,0-1.6-6.4C264.9,12.9,265,13.4,265,13.9Z"/><path class="cls-2" d="M123.7,14.1v5.7a11.85,11.85,0,0,1,8.8,3.7,12.23,12.23,0,0,1,3.7,8.8h5.7a18.1,18.1,0,0,0-18.2-18.2Z"/><path class="cls-2" d="M123.7,5.4v5.7a21.38,21.38,0,0,1,14.8,6.1A20.77,20.77,0,0,1,144.6,32h5.7A26.72,26.72,0,0,0,123.7,5.4Z"/><circle class="cls-2" cx="127.5" cy="28.4" r="4"/><path class="cls-2" d="M72.5,8.5a12.23,12.23,0,0,1-3.6,1.4,5.64,5.64,0,0,0-4.2-1.8,5.8,5.8,0,0,0-5.8,5.8,6.6,6.6,0,0,0,.1,1.4,16.11,16.11,0,0,1-11.9-6,5.38,5.38,0,0,0-.8,2.8,5.63,5.63,0,0,0,2.6,4.8,5.94,5.94,0,0,1-2.6-.7v.1A5.88,5.88,0,0,0,51,22a7.72,7.72,0,0,1-1.5.2,4.48,4.48,0,0,1-1.1-.1,5.64,5.64,0,0,0,5.5,4,11,11,0,0,1-7.2,2.5,6.6,6.6,0,0,1-1.4-.1,16.86,16.86,0,0,0,8.9,2.6c10.7,0,16.5-8.9,16.5-16.5v-.8a8.91,8.91,0,0,0,2.8-3,10.73,10.73,0,0,1-3.4.9A6,6,0,0,0,72.5,8.5Z"/><path class="cls-2" d="M403,18v3.7h6.3c-.9,4.7-7.5,6.3-10.8,3.2a7.16,7.16,0,0,1,.4-11.2c2.6-2.1,6.2-1.5,8.8.2.9-.9,1.9-1.9,2.8-3A10.93,10.93,0,0,0,403,8.1a11.18,11.18,0,0,0-4.1,21.6c4.3,1.7,9.9.6,12.7-3.4,1.9-2.4,2.2-5.6,2.1-8.4C410.1,18,406.6,18,403,18Z"/><path class="cls-2" d="M423.8,14.6h-3.2v3.2h-3.2V21h3.2v3.2h3.2V21H427V17.8h-3.2Z"/><path class="cls-2" d="M448.7,22c-4.9,0-8.8,2.8-8.8,5.6v1.8h17.5V27.6C457.5,24.8,453.6,22,448.7,22Z"/><circle class="cls-2" cx="448.7" cy="13.6" r="4.3"/><circle class="cls-2" cx="460.6" cy="19" r="3.2"/><path class="cls-2" d="M460.6,24.5a7.61,7.61,0,0,0-2.1.3,5,5,0,0,1,1,2.8v1.1h6.4v-.8C466,26.2,463.7,24.5,460.6,24.5Z"/><circle class="cls-2" cx="436.8" cy="19" r="3.2"/><path class="cls-2" d="M431.3,28v.8h6.4V27.7a6,6,0,0,1,1-2.8,15.17,15.17,0,0,0-2.1-.3C433.8,24.5,431.3,26.2,431.3,28Z"/><path class="cls-2" d="M484.2,13.4v2.8a6.34,6.34,0,0,1,4.7,2,6.73,6.73,0,0,1,2,4.8h2.7A9.5,9.5,0,0,0,484.2,13.4Z"/><path class="cls-2" d="M484.2,8.5v2.8a11.59,11.59,0,0,1,11.5,11.6h2.7A14.3,14.3,0,0,0,484.2,8.5Z"/><path class="cls-2" d="M482.6,18.4a1.71,1.71,0,0,0-1.8,1.8,1.59,1.59,0,0,0,.4,1.2,1.61,1.61,0,0,0,1.3.6,2.44,2.44,0,0,1,1.8.6,2.54,2.54,0,0,1,0,3.5,2.46,2.46,0,0,1-1.7.8,2.29,2.29,0,0,1-1.7-.8,2.41,2.41,0,0,1-.7-1.8V15.5a2,2,0,0,0-.5-1.4,1.9,1.9,0,0,0-1.3-.5,2.11,2.11,0,0,0-1.3.5,1.62,1.62,0,0,0-.5,1.4v8.8a6,6,0,0,0,1.8,4.4,5.8,5.8,0,0,0,8.4,0,6,6,0,0,0,1.8-4.4,5.73,5.73,0,0,0-1.7-4.2A5.58,5.58,0,0,0,482.6,18.4Z"/><path class="cls-2" d="M526.7,5.9A13.41,13.41,0,0,0,522.4,32c.7.1.9-.2.9-.6V29.1c-3.7.8-4.5-1.8-4.5-1.8a4,4,0,0,0-1.5-2c-1.2-.8.1-.8.1-.8a2.79,2.79,0,0,1,2,1.4,2.93,2.93,0,0,0,3.9,1.1,3.77,3.77,0,0,1,.8-1.8c-3-.4-6.1-1.5-6.1-6.6a5.24,5.24,0,0,1,1.4-3.6,5.3,5.3,0,0,1,.1-3.6s1.1-.4,3.7,1.4a20.33,20.33,0,0,1,3.3-.5,8.8,8.8,0,0,1,3.3.5c2.6-1.8,3.7-1.4,3.7-1.4a5.3,5.3,0,0,1,.1,3.6,5.33,5.33,0,0,1,1.4,3.6c0,5.1-3.1,6.3-6.2,6.6a3.08,3.08,0,0,1,.9,2.5v3.7c0,.4.2.8.9.6a13.41,13.41,0,0,0,9.1-12.7A12.82,12.82,0,0,0,526.7,5.9Z"/><path class="cls-2" d="M574.8,8.5H556.1a1.58,1.58,0,0,0-1.6,1.6V28.9a1.58,1.58,0,0,0,1.6,1.6h18.7a1.58,1.58,0,0,0,1.6-1.6V10.1A1.47,1.47,0,0,0,574.8,8.5Zm-14,15a4,4,0,1,1,4-4A4,4,0,0,1,560.8,23.5Zm9.4,0a4,4,0,1,1,4-4A4,4,0,0,1,570.2,23.5Z"/><circle class="cls-3" cx="560.8" cy="19.5" r="4"/><path class="cls-2" d="M213.9,11.3V5.5h-3.7a1.7,1.7,0,0,0-.1.7c0,.1-.1.2-.1.3a5.72,5.72,0,0,1-3.4,4.5,3.23,3.23,0,0,1-1.6.3V16h2.7V26.5a5.37,5.37,0,0,0,4.5,5.2,12.67,12.67,0,0,0,3.4.4,13.17,13.17,0,0,0,4.4-.8V25.8c-.9.3-1.6.5-2.3.7a3.43,3.43,0,0,1-3.4-.7,2.18,2.18,0,0,1-.3-.5,14.92,14.92,0,0,1-.2-2.1V16h6V11.3Z"/><path class="cls-2" d="M603.3,6.2s-9.9.2-11.8,8,3.3,14.4,7.8,14.2,5.5-4.1,3.6-6.7-5.4-4.1-5.3-8.5C597.5,8.7,603.3,6.2,603.3,6.2Z"/><path class="cls-2" d="M604.8,31.4s9.9-.2,11.8-8S613.3,9,608.8,9.2s-5.5,4.1-3.6,6.7,5.4,4.1,5.3,8.5S604.8,31.4,604.8,31.4Z"/><path class="cls-2" d="M643.8,5.8a13.3,13.3,0,1,0,13.3,13.3A13.29,13.29,0,0,0,643.8,5.8Zm1.3,17.7c-1.2-.1-1.7-.7-2.7-1.3-.5,2.7-1.2,5.3-3,6.7-.6-4.1.9-7.2,1.5-10.5-1.1-1.9.1-5.7,2.5-4.8,2.9,1.2-2.5,7.1,1.1,7.8,3.8.8,5.4-6.7,3-9.1-3.4-3.5-10-.1-9.2,4.9.2,1.2,1.5,1.6.5,3.3-2.2-.5-2.9-2.2-2.8-4.5a7.3,7.3,0,0,1,6.7-6.8c4.2-.5,8.1,1.5,8.6,5.4C652,19,649.6,23.8,645.1,23.5Z"/><path class="cls-4" d="M674.1,17.2h-2.3l-1.2-6.1h0l-1.2,6.1h-2.3l-2.4-8.9H667l1.2,6.5h0l1.3-6.5h2.1l1.3,6.5h0l1.2-6.5h2.3Z"/><path class="cls-4" d="M677.3,8.4h7v1.9h-4.7v1.6h4.3v1.8h-4.3v1.7h4.8v2h-7.1Z"/><path class="cls-4" d="M674.4,29.7h-2.3l-1.2-6.2h0l-1.2,6.2h-2.3L665,20.8h2.3l1.2,6.5h0l1.3-6.5H672l1.3,6.5h0l1.2-6.5h2.3Z"/><path class="cls-4" d="M677.6,20.8h2.3v8.9h-2.3Z"/><path class="cls-4" d="M681.5,20.8h2.3v6.9h4.1v2h-6.4V20.8Z"/><path class="cls-4" d="M689,20.8h2.3v6.9h4.1v2H689Z"/><path class="cls-4" d="M696.6,27.4h2.3v2.3h-2.3Z"/><path class="cls-2" d="M97.2,7.7c3.7,0,4.1,0,5.6.1a9,9,0,0,1,2.6.5,5.37,5.37,0,0,1,1.6,1,3.36,3.36,0,0,1,1,1.6,8.25,8.25,0,0,1,.5,2.6c.1,1.5.1,1.9.1,5.6s0,4.1-.1,5.6a9,9,0,0,1-.5,2.6,5.37,5.37,0,0,1-1,1.6,3.36,3.36,0,0,1-1.6,1,8.25,8.25,0,0,1-2.6.5c-1.5.1-1.9.1-5.6.1s-4.1,0-5.6-.1a9,9,0,0,1-2.6-.5,5.37,5.37,0,0,1-1.6-1,3.36,3.36,0,0,1-1-1.6,8.25,8.25,0,0,1-.5-2.6c-.1-1.5-.1-1.9-.1-5.6s0-4.1.1-5.6a9,9,0,0,1,.5-2.6,5.37,5.37,0,0,1,1-1.6,3.36,3.36,0,0,1,1.6-1,8.25,8.25,0,0,1,2.6-.5c1.4-.1,1.9-.1,5.6-.1m0-2.5c-3.8,0-4.2,0-5.7.1a13.06,13.06,0,0,0-3.4.6,6.33,6.33,0,0,0-2.4,1.6,7.21,7.21,0,0,0-1.6,2.4,9.88,9.88,0,0,0-.6,3.4c-.1,1.5-.1,1.9-.1,5.7s0,4.2.1,5.7a13.06,13.06,0,0,0,.6,3.4,6.33,6.33,0,0,0,1.6,2.4,7.21,7.21,0,0,0,2.4,1.6,9.88,9.88,0,0,0,3.4.6c1.5.1,1.9.1,5.7.1s4.2,0,5.7-.1a13.06,13.06,0,0,0,3.4-.6,6.33,6.33,0,0,0,2.4-1.6,7.21,7.21,0,0,0,1.6-2.4,9.88,9.88,0,0,0,.6-3.4c.1-1.5.1-1.9.1-5.7s0-4.2-.1-5.7a13.06,13.06,0,0,0-.6-3.4,6.33,6.33,0,0,0-1.6-2.4,7.21,7.21,0,0,0-2.4-1.6,9.88,9.88,0,0,0-3.4-.6c-1.5-.1-2-.1-5.7-.1Z"/><path class="cls-2" d="M97.2,11.9a7.1,7.1,0,1,0,7.1,7.1A7.13,7.13,0,0,0,97.2,11.9Zm0,11.7a4.6,4.6,0,1,1,4.6-4.6A4.65,4.65,0,0,1,97.2,23.6Z"/><circle class="cls-2" cx="104.5" cy="11.7" r="1.7"/><path class="cls-2" d="M31.17,4.62H6.48A1.53,1.53,0,0,0,4.95,6.15h0V30.85a1.53,1.53,0,0,0,1.53,1.53H19.77V21.64H16.17v-4.2h3.61V14.36c0-3.59,2.19-5.54,5.38-5.54A30.5,30.5,0,0,1,28.39,9v3.74H26.19c-1.74,0-2.08.83-2.08,2v2.68h4.16l-.54,4.2H24.11V32.38h7.06a1.53,1.53,0,0,0,1.53-1.53h0V6.15a1.53,1.53,0,0,0-1.53-1.53Z"/><path id="_Path_" data-name="&lt;Path&gt;" class="cls-2" d="M190.82,11.4A4.08,4.08,0,0,0,188,8.51c-2.53-.68-12.68-.68-12.68-.68s-10.15,0-12.68.68a4.08,4.08,0,0,0-2.87,2.89,42.78,42.78,0,0,0-.68,7.86,42.78,42.78,0,0,0,.68,7.86A4.08,4.08,0,0,0,162.59,30c2.53.68,12.68.68,12.68.68s10.15,0,12.68-.68a4.08,4.08,0,0,0,2.87-2.89,42.78,42.78,0,0,0,.68-7.86A42.78,42.78,0,0,0,190.82,11.4Z"/><polygon id="_Path_2" data-name="&lt;Path&gt;" class="cls-5" points="172.13 23.99 180.74 19.1 172.13 14.21 172.13 23.99"/></svg>