<svg id="Layer_1" data-name="Layer 1" xmlns="http://www.w3.org/2000/svg" xmlns:xlink="http://www.w3.org/1999/xlink" width="818.8" height="39" viewBox="0 0 818.8 39"><defs><style>.cls-1{fill:none;}.cls-2{fill:#4e2983;}.cls-3{fill:#e4e0ee;}.cls-4{fill:#4e2a84;}.cls-5{fill:#fff;}.cls-6{clip-path:url(#clip-path);}</style><clipPath id="clip-path"><polygon class="cls-1" points="292.7 6.19 292.7 10.19 299.89 10.19 299.87 5.72 294.43 5.69 293.67 5.77 292.7 6.19 292.7 6.19"/></clipPath></defs><title>social-media-icons2</title><path class="cls-1" d="M570.2,15.5a4,4,0,1,0,4,4A4,4,0,0,0,570.2,15.5Z"/><rect class="cls-2" x="357.4" y="14.5" width="5.6" height="18.1"/><path class="cls-2" d="M360.2,5.5a3.3,3.3,0,1,0,3.3,3.3A3.33,3.33,0,0,0,360.2,5.5Z"/><path class="cls-2" d="M377.3,14a5.88,5.88,0,0,0-5.3,2.9h-.1V14.4h-5.4V32.5h5.6V23.6c0-2.4.4-4.6,3.4-4.6s2.9,2.7,2.9,4.8v8.8H384V22.7C384,17.8,383,14,377.3,14Z"/><path class="cls-2" d="M342.8,5.1c-4.3-.1-7.3,2.3-8.8,7.4a6.82,6.82,0,0,1,2.3-.5q2.4,0,2.1,2.7a11.83,11.83,0,0,1-2.1,4.7c-1.3,2.1-2.3,3.1-3,3.1s-1.6-1.6-2.3-4.8c-.2-.9-.7-3.3-1.3-7.2-.6-3.6-2.1-5.2-4.5-5-1,.1-2.6,1-4.6,2.8-1.5,1.4-3,2.7-4.6,4.1l1.5,1.9a8.42,8.42,0,0,1,2.5-1.5q1.65,0,3,5.1c.8,3.1,1.7,6.2,2.5,9.3,1.3,3.4,2.8,5.1,4.6,5.1,3,0,6.6-2.8,10.8-8.3,4.1-5.3,6.3-9.5,6.4-12.5C347.6,7.3,346.1,5.2,342.8,5.1Z"/><path class="cls-2" d="M239.9,18.9a13.43,13.43,0,0,0,7.5,12l-6.3-17.4A12.21,12.21,0,0,0,239.9,18.9Z"/><path class="cls-2" d="M262.2,18.2a7.37,7.37,0,0,0-1.1-3.7,5.94,5.94,0,0,1-1.3-3.1A2.33,2.33,0,0,1,262,9h.2a13.15,13.15,0,0,0-9-3.5,13.38,13.38,0,0,0-11.1,6h.9c1.4,0,3.5-.2,3.5-.2a.55.55,0,0,1,.1,1.1,11.93,11.93,0,0,1-1.5.1l4.8,14.4,2.9-8.7-2.1-5.7a11.35,11.35,0,0,1-1.4-.1c-.7,0-.6-1.1.1-1.1,0,0,2.2.2,3.5.2s3.5-.2,3.5-.2a.55.55,0,0,1,.1,1.1,11.93,11.93,0,0,1-1.5.1l4.8,14.3,1.3-4.4A11.37,11.37,0,0,0,262.2,18.2Z"/><path class="cls-2" d="M253.5,20.1l-4,11.6a11.65,11.65,0,0,0,3.8.5,13.17,13.17,0,0,0,4.4-.8c0-.1-.1-.1-.1-.2Z"/><path class="cls-2" d="M265,13.9a14.17,14.17,0,0,1-1,4.8l-4.1,11.7a13.19,13.19,0,0,0,6.6-11.5,13.79,13.79,0,0,0-1.6-6.4C264.9,12.9,265,13.4,265,13.9Z"/><path class="cls-2" d="M123.7,14.1v5.7a11.85,11.85,0,0,1,8.8,3.7,12.23,12.23,0,0,1,3.7,8.8h5.7a18.1,18.1,0,0,0-18.2-18.2Z"/><path class="cls-2" d="M123.7,5.4v5.7a21.38,21.38,0,0,1,14.8,6.1A20.77,20.77,0,0,1,144.6,32h5.7A26.72,26.72,0,0,0,123.7,5.4Z"/><circle class="cls-2" cx="127.5" cy="28.4" r="4"/><path class="cls-2" d="M72.5,8.5a12.23,12.23,0,0,1-3.6,1.4,5.64,5.64,0,0,0-4.2-1.8,5.8,5.8,0,0,0-5.8,5.8,6.6,6.6,0,0,0,.1,1.4,16.11,16.11,0,0,1-11.9-6,5.38,5.38,0,0,0-.8,2.8,5.63,5.63,0,0,0,2.6,4.8,5.94,5.94,0,0,1-2.6-.7v.1A5.88,5.88,0,0,0,51,22a7.72,7.72,0,0,1-1.5.2,4.48,4.48,0,0,1-1.1-.1,5.64,5.64,0,0,0,5.5,4,11,11,0,0,1-7.2,2.5,6.6,6.6,0,0,1-1.4-.1,16.86,16.86,0,0,0,8.9,2.6c10.7,0,16.5-8.9,16.5-16.5v-.8a8.91,8.91,0,0,0,2.8-3,10.73,10.73,0,0,1-3.4.9A6,6,0,0,0,72.5,8.5Z"/><path class="cls-2" d="M403,18v3.7h6.3c-.9,4.7-7.5,6.3-10.8,3.2a7.16,7.16,0,0,1,.4-11.2c2.6-2.1,6.2-1.5,8.8.2.9-.9,1.9-1.9,2.8-3A10.93,10.93,0,0,0,403,8.1a11.18,11.18,0,0,0-4.1,21.6c4.3,1.7,9.9.6,12.7-3.4,1.9-2.4,2.2-5.6,2.1-8.4C410.1,18,406.6,18,403,18Z"/><path class="cls-2" d="M423.8,14.6h-3.2v3.2h-3.2V21h3.2v3.2h3.2V21H427V17.8h-3.2Z"/><path class="cls-2" d="M448.7,22c-4.9,0-8.8,2.8-8.8,5.6v1.8h17.5V27.6C457.5,24.8,453.6,22,448.7,22Z"/><circle class="cls-2" cx="448.7" cy="13.6" r="4.3"/><circle class="cls-2" cx="460.6" cy="19" r="3.2"/><path class="cls-2" d="M460.6,24.5a7.61,7.61,0,0,0-2.1.3,5,5,0,0,1,1,2.8v1.1h6.4v-.8C466,26.2,463.7,24.5,460.6,24.5Z"/><circle class="cls-2" cx="436.8" cy="19" r="3.2"/><path class="cls-2" d="M431.3,28v.8h6.4V27.7a6,6,0,0,1,1-2.8,15.17,15.17,0,0,0-2.1-.3C433.8,24.5,431.3,26.2,431.3,28Z"/><path class="cls-2" d="M484.2,13.4v2.8a6.34,6.34,0,0,1,4.7,2,6.73,6.73,0,0,1,2,4.8h2.7A9.5,9.5,0,0,0,484.2,13.4Z"/><path class="cls-2" d="M484.2,8.5v2.8a11.59,11.59,0,0,1,11.5,11.6h2.7A14.3,14.3,0,0,0,484.2,8.5Z"/><path class="cls-2" d="M482.6,18.4a1.71,1.71,0,0,0-1.8,1.8,1.59,1.59,0,0,0,.4,1.2,1.61,1.61,0,0,0,1.3.6,2.44,2.44,0,0,1,1.8.6,2.54,2.54,0,0,1,0,3.5,2.46,2.46,0,0,1-1.7.8,2.29,2.29,0,0,1-1.7-.8,2.41,2.41,0,0,1-.7-1.8V15.5a2,2,0,0,0-.5-1.4,1.9,1.9,0,0,0-1.3-.5,2.11,2.11,0,0,0-1.3.5,1.62,1.62,0,0,0-.5,1.4v8.8a6,6,0,0,0,1.8,4.4,5.8,5.8,0,0,0,8.4,0,6,6,0,0,0,1.8-4.4,5.73,5.73,0,0,0-1.7-4.2A5.58,5.58,0,0,0,482.6,18.4Z"/><path class="cls-2" d="M526.7,5.9A13.41,13.41,0,0,0,522.4,32c.7.1.9-.2.9-.6V29.1c-3.7.8-4.5-1.8-4.5-1.8a4,4,0,0,0-1.5-2c-1.2-.8.1-.8.1-.8a2.79,2.79,0,0,1,2,1.4,2.93,2.93,0,0,0,3.9,1.1,3.77,3.77,0,0,1,.8-1.8c-3-.4-6.1-1.5-6.1-6.6a5.24,5.24,0,0,1,1.4-3.6,5.3,5.3,0,0,1,.1-3.6s1.1-.4,3.7,1.4a20.34,20.34,0,0,1,3.3-.5,8.8,8.8,0,0,1,3.3.5c2.6-1.8,3.7-1.4,3.7-1.4a5.3,5.3,0,0,1,.1,3.6,5.33,5.33,0,0,1,1.4,3.6c0,5.1-3.1,6.3-6.2,6.6a3.08,3.08,0,0,1,.9,2.5v3.7c0,.4.2.8.9.6a13.41,13.41,0,0,0,9.1-12.7A12.82,12.82,0,0,0,526.7,5.9Z"/><path class="cls-2" d="M574.8,8.5H556.1a1.58,1.58,0,0,0-1.6,1.6V28.9a1.58,1.58,0,0,0,1.6,1.6h18.7a1.58,1.58,0,0,0,1.6-1.6V10.1A1.47,1.47,0,0,0,574.8,8.5Zm-14,15a4,4,0,1,1,4-4A4,4,0,0,1,560.8,23.5Zm9.4,0a4,4,0,1,1,4-4A4,4,0,0,1,570.2,23.5Z"/><circle class="cls-3" cx="560.8" cy="19.5" r="4"/><path class="cls-2" d="M213.9,11.3V5.5h-3.7a1.7,1.7,0,0,0-.1.7c0,.1-.1.2-.1.3a5.72,5.72,0,0,1-3.4,4.5,3.23,3.23,0,0,1-1.6.3V16h2.7V26.5a5.37,5.37,0,0,0,4.5,5.2,12.67,12.67,0,0,0,3.4.4,13.17,13.17,0,0,0,4.4-.8V25.8c-.9.3-1.6.5-2.3.7a3.43,3.43,0,0,1-3.4-.7,2.19,2.19,0,0,1-.3-.5,14.92,14.92,0,0,1-.2-2.1V16h6V11.3Z"/><path class="cls-2" d="M603.3,6.2s-9.9.2-11.8,8,3.3,14.4,7.8,14.2,5.5-4.1,3.6-6.7-5.4-4.1-5.3-8.5C597.5,8.7,603.3,6.2,603.3,6.2Z"/><path class="cls-2" d="M604.8,31.4s9.9-.2,11.8-8S613.3,9,608.8,9.2s-5.5,4.1-3.6,6.7,5.4,4.1,5.3,8.5S604.8,31.4,604.8,31.4Z"/><path class="cls-2" d="M643.8,5.8a13.3,13.3,0,1,0,13.3,13.3A13.29,13.29,0,0,0,643.8,5.8Zm1.3,17.7c-1.2-.1-1.7-.7-2.7-1.3-.5,2.7-1.2,5.3-3,6.7-.6-4.1.9-7.2,1.5-10.5-1.1-1.9.1-5.7,2.5-4.8,2.9,1.2-2.5,7.1,1.1,7.8,3.8.8,5.4-6.7,3-9.1-3.4-3.5-10-.1-9.2,4.9.2,1.2,1.5,1.6.5,3.3-2.2-.5-2.9-2.2-2.8-4.5a7.3,7.3,0,0,1,6.7-6.8c4.2-.5,8.1,1.5,8.6,5.4C652,19,649.6,23.8,645.1,23.5Z"/><path class="cls-4" d="M674.1,17.2h-2.3l-1.2-6.1h0l-1.2,6.1h-2.3l-2.4-8.9H667l1.2,6.5h0l1.3-6.5h2.1l1.3,6.5h0l1.2-6.5h2.3Z"/><path class="cls-4" d="M677.3,8.4h7v1.9h-4.7v1.6h4.3v1.8h-4.3v1.7h4.8v2h-7.1Z"/><path class="cls-4" d="M674.4,29.7h-2.3l-1.2-6.2h0l-1.2,6.2h-2.3L665,20.8h2.3l1.2,6.5h0l1.3-6.5H672l1.3,6.5h0l1.2-6.5h2.3Z"/><path class="cls-4" d="M677.6,20.8h2.3v8.9h-2.3Z"/><path class="cls-4" d="M681.5,20.8h2.3v6.9h4.1v2h-6.4V20.8Z"/><path class="cls-4" d="M689,20.8h2.3v6.9h4.1v2H689Z"/><path class="cls-4" d="M696.6,27.4h2.3v2.3h-2.3Z"/><path class="cls-2" d="M97.2,7.7c3.7,0,4.1,0,5.6.1a9,9,0,0,1,2.6.5,5.37,5.37,0,0,1,1.6,1,3.36,3.36,0,0,1,1,1.6,8.25,8.25,0,0,1,.5,2.6c.1,1.5.1,1.9.1,5.6s0,4.1-.1,5.6a9,9,0,0,1-.5,2.6,5.37,5.37,0,0,1-1,1.6,3.36,3.36,0,0,1-1.6,1,8.25,8.25,0,0,1-2.6.5c-1.5.1-1.9.1-5.6.1s-4.1,0-5.6-.1a9,9,0,0,1-2.6-.5,5.37,5.37,0,0,1-1.6-1,3.36,3.36,0,0,1-1-1.6,8.25,8.25,0,0,1-.5-2.6c-.1-1.5-.1-1.9-.1-5.6s0-4.1.1-5.6a9,9,0,0,1,.5-2.6,5.37,5.37,0,0,1,1-1.6,3.36,3.36,0,0,1,1.6-1,8.25,8.25,0,0,1,2.6-.5c1.4-.1,1.9-.1,5.6-.1m0-2.5c-3.8,0-4.2,0-5.7.1a13.06,13.06,0,0,0-3.4.6,6.33,6.33,0,0,0-2.4,1.6,7.21,7.21,0,0,0-1.6,2.4,9.88,9.88,0,0,0-.6,3.4c-.1,1.5-.1,1.9-.1,5.7s0,4.2.1,5.7a13.06,13.06,0,0,0,.6,3.4,6.33,6.33,0,0,0,1.6,2.4,7.21,7.21,0,0,0,2.4,1.6,9.88,9.88,0,0,0,3.4.6c1.5.1,1.9.1,5.7.1s4.2,0,5.7-.1a13.06,13.06,0,0,0,3.4-.6,6.33,6.33,0,0,0,2.4-1.6,7.21,7.21,0,0,0,1.6-2.4,9.88,9.88,0,0,0,.6-3.4c.1-1.5.1-1.9.1-5.7s0-4.2-.1-5.7a13.06,13.06,0,0,0-.6-3.4,6.33,6.33,0,0,0-1.6-2.4,7.21,7.21,0,0,0-2.4-1.6,9.88,9.88,0,0,0-3.4-.6c-1.5-.1-2-.1-5.7-.1Z"/><path class="cls-2" d="M97.2,11.9a7.1,7.1,0,1,0,7.1,7.1A7.13,7.13,0,0,0,97.2,11.9Zm0,11.7a4.6,4.6,0,1,1,4.6-4.6A4.65,4.65,0,0,1,97.2,23.6Z"/><circle class="cls-2" cx="104.5" cy="11.7" r="1.7"/><path class="cls-2" d="M190.82,11.4A4.07,4.07,0,0,0,188,8.51c-2.53-.68-12.68-.68-12.68-.68s-10.15,0-12.68.68a4.1,4.1,0,0,0-2.87,2.89,42.66,42.66,0,0,0-.68,7.86,42.6,42.6,0,0,0,.68,7.86A4.09,4.09,0,0,0,162.59,30c2.53.68,12.68.68,12.68.68s10.15,0,12.68-.68a4.05,4.05,0,0,0,2.87-2.89,42.6,42.6,0,0,0,.68-7.86A42.66,42.66,0,0,0,190.82,11.4Z"/><polygon class="cls-5" points="172.13 23.99 180.74 19.1 172.13 14.21 172.13 23.99"/><path class="cls-4" d="M704.36,21a.15.15,0,0,0-.14.14L704,23.07l.25,1.91a.14.14,0,0,0,.28,0h0l.31-1.91-.31-1.94A.15.15,0,0,0,704.36,21Z"/><path class="cls-4" d="M705.8,19.93a.14.14,0,0,0-.14-.14.15.15,0,0,0-.15.14l-.34,3.14.34,3.07a.15.15,0,0,0,.15.14.14.14,0,0,0,.14-.14l.39-3.07Z"/><path class="cls-4" d="M711.22,17a.26.26,0,0,0-.26.26l-.28,5.78.28,3.74a.26.26,0,0,0,.52,0h0l.31-3.74-.31-5.78A.26.26,0,0,0,711.22,17Z"/><path class="cls-4" d="M708.42,19a.22.22,0,0,0-.21.2l-.31,3.83.31,3.71a.21.21,0,0,0,.41,0l.35-3.71-.35-3.83A.21.21,0,0,0,708.42,19Z"/><path class="cls-4" d="M714.07,27.07a.32.32,0,0,0,.32-.32l.27-3.68-.27-7.69a.32.32,0,1,0-.64,0l-.24,7.69.24,3.68A.32.32,0,0,0,714.07,27.07Z"/><path class="cls-4" d="M719.9,27.09a.45.45,0,0,0,.45-.45h0l.19-3.56-.19-8.89a.45.45,0,0,0-.45-.44.44.44,0,0,0-.44.44l-.17,8.88.17,3.58A.44.44,0,0,0,719.9,27.09Z"/><path class="cls-4" d="M717,27.07a.39.39,0,0,0,.38-.38h0l.23-3.61-.23-7.76a.4.4,0,0,0-.39-.38.38.38,0,0,0-.38.38l-.2,7.76.2,3.61A.39.39,0,0,0,717,27.07Z"/><path class="cls-4" d="M709.81,27a.24.24,0,0,0,.24-.23l.33-3.74-.33-3.55a.24.24,0,0,0-.24-.23.23.23,0,0,0-.23.23l-.29,3.55.29,3.74A.24.24,0,0,0,709.81,27Z"/><path class="cls-4" d="M707,26.83a.18.18,0,0,0,.17-.17l.38-3.59-.37-3.73a.19.19,0,0,0-.18-.17.18.18,0,0,0-.18.17l-.32,3.73.32,3.59A.18.18,0,0,0,707,26.83Z"/><path class="cls-4" d="M718.43,15.2a.42.42,0,0,0-.42.41l-.18,7.47.18,3.59a.42.42,0,0,0,.42.41.41.41,0,0,0,.41-.41h0l.21-3.59-.21-7.47A.41.41,0,0,0,718.43,15.2Z"/><path class="cls-4" d="M712.64,27.08a.29.29,0,0,0,.29-.3l.29-3.71-.29-7.1a.29.29,0,0,0-.29-.29.31.31,0,0,0-.3.29l-.25,7.1.25,3.72A.31.31,0,0,0,712.64,27.08Z"/><path class="cls-4" d="M715.87,26.73h0l.24-3.65-.24-8a.36.36,0,0,0-.36-.35.35.35,0,0,0-.35.35l-.22,8,.22,3.66a.35.35,0,0,0,.35.35.37.37,0,0,0,.36-.36Z"/><path class="cls-4" d="M734.64,18.49a4.39,4.39,0,0,0-1.66.33,7.59,7.59,0,0,0-7.56-6.92,7.73,7.73,0,0,0-2.75.52c-.33.12-.41.25-.42.5V26.58a.54.54,0,0,0,.47.51h11.92a4.31,4.31,0,1,0,0-8.61Z"/><path class="cls-4" d="M721.37,12.91a.48.48,0,0,0-.47.48l-.19,9.69.19,3.52a.47.47,0,0,0,.47.46.48.48,0,0,0,.48-.47h0l.21-3.52-.21-9.7A.48.48,0,0,0,721.37,12.91Z"/><path class="cls-4" d="M33.7,18.55A13.93,13.93,0,1,0,17.59,32.31V22.58H14.06v-4h3.53V15.48c0-3.49,2.08-5.42,5.27-5.42a20.73,20.73,0,0,1,3.11.28v3.42H24.22A2,2,0,0,0,22,15.94v2.61h3.86l-.62,4H22v9.73A13.92,13.92,0,0,0,33.7,18.55Z"/><path class="cls-5" d="M25.19,22.58l.62-4H22V15.94a2,2,0,0,1,2.27-2.18H26V10.34a20.73,20.73,0,0,0-3.11-.28c-3.19,0-5.27,1.93-5.27,5.42v3.07H14.06v4h3.53v9.73a14.06,14.06,0,0,0,4.36,0V22.58Z"/><path class="cls-4" d="M298.56,5.19h-4a2.61,2.61,0,0,0-1.71.62c-.54.44-1.06.92-1.59,1.39-1,.85-1.95,1.69-2.91,2.55a3,3,0,0,0-1,2.3c0,1.31,0,2.61,0,3.92,0,.18,0,.18.19.18h-.2V32.38h5.48V21.64h5.49V16.15h-5.46V10.79h7.47V5.19Zm.83,4.86H293c-.12,0-.17,0-.17-.16h0V9.83c0-.76,0-1.52,0-2.28a1.64,1.64,0,0,1,1.66-1.67h4.87c.18,0,.24,0,.24.17V9.89c0,.13-.06.16-.24.16Z"/><g class="cls-6"><path class="cls-4" d="M304.94-1.18v-.6l-.81.81h0l-2.2,2.2h0l-2.56,2.56h0l-2.5,2.5h0l-2.32,2.32h0L292,11.1h0l-2.56,2.56h0l-1.82,1.82v.58l0,0h0l2.56-2.56h0l2.32-2.32h0L295,8.78h0l2.56-2.56h0L300,3.73h0l2.32-2.32h0l2.56-2.56h0l0,0ZM302.75-1h0l-2.2,2.2h0L298,3.79h0l-2.5,2.5h0l-2.32,2.32h0l-2.5,2.49h0l-2.56,2.56h0l-.44.44v.6l1.22-1.22h0l2.32-2.32h0l2.38-2.38h0l2.56-2.56h0l2.5-2.49h0L301,1.41h0l2.56-2.56h0l1.41-1.41v-.6L302.75-1Zm1.73-2.51h-.6L301.37-1h0l-2.2,2.2h0L296.6,3.79h0l-2.5,2.5h0l-2.32,2.32h0l-2.5,2.49h0l-1.6,1.6v.6l2.14-2.14h0l2.38-2.38h0l2.56-2.56h0l2.5-2.49h0l2.32-2.32h0l2.56-2.56h0l2.34-2.33Zm-1.38,0h-.6L300-1h0l-2.2,2.2h0l-2.56,2.56h0l-2.49,2.5h0l-2.32,2.32h0l-2.5,2.49h0l-.22.22v.6l.76-.76h0l2.38-2.38h0l2.56-2.56h0l2.5-2.49h0l2.32-2.32h0l2.56-2.56h0l2.34-2.33Zm-1.38,0h-.6L298.6-1h0l-2.2,2.2h0l-2.56,2.56h0l-2.5,2.5h0L289,8.61h0L287.66,10v.6l1.77-1.77h0L292,6.22h0l2.5-2.49h0l2.32-2.32h0l2.57-2.56h0l2.34-2.33Zm-1.39,0h-.59L297.22-1h0L295,1.23h0l-2.56,2.56h0L290,6.29h0l-2.3,2.3v.58l.39-.39h0l2.56-2.56h0l2.5-2.49h0l2.32-2.32h0L298-1.15h0l2.33-2.33Zm-1.38,0h-.6L295.84-1h0l-2.2,2.2h0l-2.56,2.56h0l-2.5,2.5h0l-.92.92V7.8l1.58-1.58h0l2.5-2.49h0l2.32-2.32h0l2.56-2.56h0L299-3.48Zm-1.38,0H297L294.46-1h0l-2.2,2.2h0L289.7,3.79h0l-2,2v.59l.2-.2h0l2.5-2.49h0l2.33-2.32h0l2.56-2.56h0l2.33-2.33Zm-1.38,0h-.6L293.08-1h0l-2.2,2.2h0l-2.56,2.56h0l-.66.65V5L289,3.73h0l2.32-2.32h0l2.56-2.56h0l2.34-2.33Zm-1.38,0h-.6L291.69-1h0l-2.2,2.2h0l-1.83,1.83v.6l2.25-2.25h0l2.56-2.56h0l2.34-2.33Zm-1.38,0h-.6L290.31-1h0l-2.2,2.2h0l-.45.45v.6l.87-.87h0l2.57-2.56h0l2.34-2.33Zm-1.39,0h-.59L288.93-1h0L287.66.32V.91l2.06-2.06h0L292-3.48Zm-1.38,0h-.6l-2.4,2.4v.61l.68-.68h0l2.33-2.33Zm-1.38,0h-.6l-1,1v.6l1.62-1.62Zm-1.38,0h-.24v.24l.24-.24Zm17,5.06V1l-.24.23h0l-2.56,2.56h0l-2.5,2.5h0l-2.33,2.32h0l-2.5,2.49h0l-2.56,2.56h0l-2.2,2.2h0l-2.37,2.37v.6l.47-.47h0L290.45,16h0L293,13.48h0l2.32-2.32h0l2.38-2.38h0l2.56-2.56h0l2.5-2.49h0l2.15-2.15Zm0,2.77v-.6l-.05,0h0l-2.5,2.5h0l-2.32,2.32h0l-2.5,2.49h0L295,13.66h0l-2.2,2.2h0l-2.56,2.56h0l-.94.94h.6l1-1h0L293.21,16h0l2.56-2.56h0l2.32-2.32h0l2.38-2.38h0l2.56-2.56h0l1.88-1.87Zm0,6.88v-.59l-.47.46h0l-2.56,2.56h0l-2.2,2.2h0l-2.56,2.56h0l-.94.94h.6l1-1h0L300.12,16h0l2.56-2.56h0l2.26-2.25Zm-1.31-.07,1.31-1.3v-.6l-1.85,1.84h0l-2.56,2.56h0l-2.2,2.2h0l-2.56,2.56h0l-.94.94h.6l1-1h0L298.74,16h0l2.56-2.56h0l2.32-2.32Zm1-2.38.3-.29v-.6l-.72.72h0l-2.5,2.49h0l-2.56,2.56h0l-2.2,2.2h0l-2.56,2.56h0l-.94.94h.6l1-1h0L297.36,16h0l2.56-2.56h0l2.31-2.32h0l2.39-2.38Zm.07,9.58.23-.23v-.6l-.89.89h0l-.94.94h.6l1-1ZM304.28,16l.66-.66v-.6l-1.08,1.08h0l-2.57,2.56h0l-.94.94h.59l1-1h0L304.27,16Zm.38-2.38h0l-2.2,2.2h0l-2.56,2.56h0l-.94.94h.59l1-1h0L302.88,16h0l2-2v-.61l-.28.27Zm-1.33,4.7h0l1.62-1.61v-.6l-2.27,2.27h0l-.94.94h.6l1-1Zm1.16,1h.45v-.45l-.45.45Zm-1.21-5.7h0l-2.2,2.2h0l-2.56,2.56h0l-.94.94h.6l1-1h0L301.5,16h0l2.56-2.56h0l.88-.87V12l-1.66,1.65Zm0-4.88,1.68-1.67v-.6l-2.1,2.1h0l-2.5,2.49h0l-2.56,2.56h0l-2.2,2.2h0L293,18.42h0l-.94.94h.59l1-1h0L296,16h0l2.56-2.56h0l2.32-2.32h0l2.39-2.38Zm1.18-2.56.5-.49v-.6l-1.16,1.16h0l-2.32,2.32h0l-2.5,2.49h0l-2.56,2.56h0l-2.2,2.2h0l-2.56,2.56h0l-.94.94h.59l1-1h0L294.59,16h0l2.56-2.56h0l2.32-2.32h0l2.38-2.38h0l2.56-2.56Zm-.27-2.49.77-.77V2.37l-1.43,1.42h0L301,6.29h0L298.7,8.61h0l-2.5,2.49h0l-2.56,2.56h0l-2.21,2.2h0l-2.56,2.56h0l-.94.94h.6l1-1h0L291.83,16h0l2.56-2.56h0l2.32-2.32h0l2.38-2.38h0l2.56-2.56h0l2.5-2.49Zm-.43-2.32,1.2-1.19v-.6l-1.62,1.61h0l-2.56,2.56h0l-2.5,2.5h0l-2.32,2.32h0l-2.5,2.49h0l-2.56,2.56h0l-2.2,2.2h0l-1,1v.59l1.41-1.4h0l2.56-2.56h0l2.31-2.32h0l2.39-2.38h0l2.56-2.56h0l2.5-2.49h0l2.32-2.32Z"/></g></svg>