<svg id="Layer_1" data-name="Layer 1" xmlns="http://www.w3.org/2000/svg" viewBox="0 0 121.48 85.04"><defs><style>.cls-1{fill:#fff;}.cls-2{fill:#401f68;}</style></defs><title>youtube-white</title><path class="cls-1" d="M118.95,13.28A15.22,15.22,0,0,0,108.21,2.54C98.73,0,60.74,0,60.74,0s-38,0-47.46,2.54A15.22,15.22,0,0,0,2.54,13.28C0,22.75,0,42.52,0,42.52S0,62.29,2.54,71.76A15.22,15.22,0,0,0,13.28,82.5C22.75,85,60.74,85,60.74,85s38,0,47.46-2.54a15.22,15.22,0,0,0,10.74-10.74c2.54-9.47,2.54-29.24,2.54-29.24S121.48,22.75,118.95,13.28Z"/><polygon class="cls-2" points="48.59 60.74 80.16 42.52 48.59 24.3 48.59 60.74"/></svg>