<svg id="Layer_1" data-name="Layer 1" xmlns="http://www.w3.org/2000/svg" viewBox="0 0 198 198"><defs><style>.cls-1{fill:#fff;}</style></defs><title>circle-arrow-up-white</title><path class="cls-1" d="M198,99a99,99,0,1,0-99,99A99.1,99.1,0,0,0,198,99ZM9,99C9,49.5,49.5,9,99,9s90,40.5,90,90-40.5,90-90,90S9,148.5,9,99Z"/><path class="cls-1" d="M103.5,150V59.1l43.2,44.7a4.45,4.45,0,1,0,6.3-6.3L105.6,48.3a9.05,9.05,0,0,0-12.9,0L45,97.5a4.3,4.3,0,0,0-1.2,3,6.23,6.23,0,0,0,1.5,3.6,4.65,4.65,0,0,0,6.3-.6L94.5,59.1V150a4.5,4.5,0,0,0,9,0Z"/></svg>