<svg id="Layer_1" data-name="Layer 1" xmlns="http://www.w3.org/2000/svg" viewBox="0 0 198 198"><defs><style>.cls-1{fill:#4e2a84;}</style></defs><title>circle-arrow-down-purple</title><path class="cls-1" d="M0,99A99,99,0,1,0,99,0,99.1,99.1,0,0,0,0,99Zm189,0c0,49.5-40.5,90-90,90S9,148.5,9,99,49.5,9,99,9,189,49.5,189,99Z" transform="translate(0 0)"/><path class="cls-1" d="M94.5,48v90.9L51.3,94.2a4.45,4.45,0,1,0-6.3,6.3l47.4,49.2a9.05,9.05,0,0,0,12.9,0L153,100.5a4.3,4.3,0,0,0,1.2-3,6.23,6.23,0,0,0-1.5-3.6,4.65,4.65,0,0,0-6.3.6l-42.9,44.4V48a4.5,4.5,0,0,0-9,0Z" transform="translate(0 0)"/></svg>