<svg id="Layer_1" data-name="Layer 1" xmlns="http://www.w3.org/2000/svg" viewBox="0 0 187.5 187.5"><defs><style>.cls-1{fill:#fff;fill-rule:evenodd;}</style></defs><title>external-link-white</title><path class="cls-1" d="M140.62,103.12a9.38,9.38,0,0,1,18.76,0v56.26a28.13,28.13,0,0,1-28.13,28.12H28.12A28.12,28.12,0,0,1,0,159.38V56.25A28.13,28.13,0,0,1,28.12,28.12H84.38a9.38,9.38,0,0,1,0,18.76H28.12a9.37,9.37,0,0,0-9.37,9.37V159.38a9.38,9.38,0,0,0,9.37,9.37H131.25a9.37,9.37,0,0,0,9.37-9.37Z"/><path class="cls-1" d="M168.75,18.75H121.88a9.38,9.38,0,1,1,0-18.75h56.24a9.38,9.38,0,0,1,9.38,9.38V65.62a9.38,9.38,0,1,1-18.75,0Z"/><path class="cls-1" d="M81.63,119.13a9.38,9.38,0,0,1-13.26-13.26L171.5,2.75A9.37,9.37,0,0,1,184.75,16Z"/></svg>