<svg id="Layer_1" data-name="Layer 1" xmlns="http://www.w3.org/2000/svg" viewBox="0 0 88 88"><defs><style>.cls-1{fill:#4e2a84;}.cls-2{fill:#fff;}.cls-3{fill:#401f68;}</style></defs><path class="cls-1" d="M44,88A44,44,0,1,0,0,44,44,44,0,0,0,44,88Z"/><path class="cls-2" d="M44,80A36,36,0,1,0,8,44,36,36,0,0,0,44,80Z"/><path class="cls-3" d="M51,25a5.83,5.83,0,0,1-1.71,4.24A5.56,5.56,0,0,1,45.16,31,5.63,5.63,0,0,1,41,29.25,5.81,5.81,0,0,1,39.28,25,5.88,5.88,0,0,1,41,20.76,5.64,5.64,0,0,1,45.16,19a5.57,5.57,0,0,1,4.13,1.76A5.9,5.9,0,0,1,51,25Z"/><path class="cls-3" d="M50.43,64.47c-1.72.82-3.09,1.45-4.12,1.88a8.94,8.94,0,0,1-3.56.65,6.36,6.36,0,0,1-4.86-1.85,6.63,6.63,0,0,1-1.73-4.7,19.57,19.57,0,0,1,.13-2.27q.14-1.16.42-2.61l2.15-9.25q.28-1.32.48-2.52a13.35,13.35,0,0,0,.19-2.16,3.88,3.88,0,0,0-.6-2.48,3,3,0,0,0-2.29-.69,5,5,0,0,0-1.71.31c-.59.21-.93-2.25-.93-2.25,1.41-.69,2.75-1.29,4-1.78A10.09,10.09,0,0,1,41.69,34a6.19,6.19,0,0,1,4.78,1.82,6.72,6.72,0,0,1,1.68,4.74c0,.4,0,1.11-.11,2.12a17.35,17.35,0,0,1-.44,2.79l-2.13,9.21A24.86,24.86,0,0,0,45,57.22a15.87,15.87,0,0,0-.21,2.15,3.52,3.52,0,0,0,.67,2.5,3.31,3.31,0,0,0,2.34.66,5.67,5.67,0,0,0,1.77-.33c.66-.22.86,2.27.86,2.27Z"/></svg>