<svg id="Capa_1" data-name="Capa 1" xmlns="http://www.w3.org/2000/svg" viewBox="0 0 608.5 612"><defs><style>.cls-1{fill:#4e2a84;}</style></defs><title>search-purple</title><g id="Search_and_thou_shall_find_" data-name="Search (and thou shall find)"><path class="cls-1" d="M597.3,546.6,414,362.2a229.15,229.15,0,0,0,42.3-132.7C456.3,102.7,354.1,0,228.1,0S0,102.7,0,229.5,102.2,459,228.2,459a225.11,225.11,0,0,0,132-42.6L543.5,600.7a37.9,37.9,0,0,0,53.8,0A38.33,38.33,0,0,0,597.3,546.6ZM352.1,317.9l-14.9,21.2-21.1,15a150.22,150.22,0,0,1-87.9,28.3c-83.9,0-152.1-68.6-152.1-153s68.2-153,152.1-153,152.1,68.6,152.1,153A152.19,152.19,0,0,1,352.1,317.9Z"/></g></svg>