<svg id="Capa_1" data-name="Capa 1" xmlns="http://www.w3.org/2000/svg" viewBox="0 0 615.5 615.5"><defs><style>.cls-1{fill:#fff;}</style></defs><title>search</title><g id="Search_and_thou_shall_find_" data-name="Search (and thou shall find)"><path class="cls-1" d="M602.5,549.7,418.2,364.3a230.13,230.13,0,0,0,42.5-133.5C460.7,103.3,357.9,0,231.2,0S1.8,103.3,1.8,230.8,104.6,461.6,231.3,461.6a227,227,0,0,0,132.8-42.8L548.4,604.2a38.15,38.15,0,0,0,54.2,0A38.72,38.72,0,0,0,602.5,549.7Zm-246.6-230-15,21.3-21.2,15.1a151,151,0,0,1-88.4,28.5c-84.4,0-153-69-153-153.9s68.6-153.9,153-153.9,153,69,153,153.9A153,153,0,0,1,355.9,319.7Z"/></g></svg>