<svg id="Layer_1" data-name="Layer 1" xmlns="http://www.w3.org/2000/svg" viewBox="0 0 1028.76 93.68"><defs><style>.cls-1{fill:#fff;}</style></defs><title>northwestern-university-horizontal</title><polygon class="cls-1" points="2.29 4.91 2.29 7.52 8.84 14.87 8.84 65.31 0 67.77 0 70.73 23.92 70.73 23.92 67.75 16.39 65.76 14.46 63.4 14.46 21.31 56.39 71.23 60.08 71.23 60.08 11.24 68.96 8.55 68.96 5.42 44.69 5.42 44.69 8.95 52.4 10.89 54.28 13.25 54.28 53.12 54.26 53.07 53.77 53.07 13.08 4.91 2.29 4.91"/><path class="cls-1" d="M92.08,71.82c-11.84,0-23.18-7.6-23.18-23.78s12-24.17,23.18-24.17c11.64,0,23.38,7.3,23.38,23.38C115.46,62.75,103,71.82,92.08,71.82Zm14.21-23.18c0-11-6-20.42-15.49-20.42-8.48,0-12.73,7.4-12.73,18.45S83.4,67.38,93.36,67.38C101.85,67.38,106.29,59.69,106.29,48.64Z"/><path class="cls-1" d="M234.54,43.9c0-11-6.22-13.22-13.42-13.22a14.46,14.46,0,0,0-10.06,4.54V63.64L212.95,66l6.38,2.23v2.5h-23V68.17l6.51-2.47V18.15c0-8.6-2.17-11-6.91-11V4.93L210.57,0h1s-.49,10.16-.49,17.76V31.47s9.47-7.6,16-7.6c8.09,0,15.59,3.35,15.59,15.29V63.64L244.51,66l6.38,2.23v2.5h-23V68.17l6.32-2.4Z"/><path class="cls-1" d="M327.73,45.38c0,13.71,7.79,19.44,16.67,19.44,5.53,0,12.13-2.27,12.13-2.27l1,1.88c-2.37,2.37-9,7.4-17.27,7.4C329,71.82,319,63.44,319,48c0-14,9.67-24.17,21.7-24.17,9.37,0,16.67,5.62,16.67,16.28a30.07,30.07,0,0,1-.49,5.23Zm14.5-3.75c4.74-.2,6.41-1.09,6.41-5.92,0-4.14-3-7.3-9.27-7.3-6.61,0-11.64,5.82-11.64,13.71Z"/><path class="cls-1" d="M368.17,70a4,4,0,0,1-2.56-3.35L365,57.32h4.34c1.18,6.41,5.52,10.56,11.15,10.56s8-3,8-6.91c0-3.75-3.06-5.72-6.81-7.69l-5-2.57C369.45,47.06,365.9,44.1,365.9,37c0-8.88,6.41-13.12,16.38-13.12a31.1,31.1,0,0,1,12.43,2.66l-1.28,11.54h-4c0-7.2-3-9.87-9-9.87-4,0-7.79,1.58-7.79,5.52,0,3.16,1.28,4.54,9.08,8.58l4.44,2.27c8.09,4.14,10.36,7.6,10.36,14.3,0,8.09-8.09,12.92-16,12.92C375.47,71.82,371,71.23,368.17,70Z"/><path class="cls-1" d="M445.74,45.38c0,13.71,7.79,19.44,16.67,19.44,5.53,0,12.13-2.27,12.13-2.27l1,1.88c-2.37,2.37-9,7.4-17.27,7.4C447,71.82,437,63.44,437,48c0-14,9.67-24.17,21.7-24.17,9.37,0,16.67,5.62,16.67,16.28a30.07,30.07,0,0,1-.49,5.23Zm14.5-3.75c4.74-.2,6.41-1.09,6.41-5.92,0-4.14-3-7.3-9.27-7.3-6.61,0-11.64,5.82-11.64,13.71Z"/><path class="cls-1" d="M567.19,66l-1.89-2.37.09-25c0-11.54-7.5-14.8-15.19-14.8-6.51,0-15.69,7.6-15.69,7.6,0-4.14.2-7.89.2-7.89h-.79l-14.4,5.23v2.37c5.52,0,7,4.93,7,13.81V65.71L520,68.17v2.56H542.7l.18-2.5L536.5,66l-1.89-2.37V35.32a12.75,12.75,0,0,1,9.67-4.64c6.41,0,13,2.27,13,13.22L557,65.8l-6.3,2.38v2.56h22.68l.18-2.5Z"/><path class="cls-1" d="M293.36,71.23,282.79,41.93,270.68,71.23h-4.14L254.64,35c-1.68-4.54-2.64-7.2-5.79-7.2V25.06h19.47v2.79l-5.93,1.95,8.88,30L279.06,41l1.81-4.75-2.68-7.63-3.38-.83V25.06h18.83v3l-5.93,1.78,10,30L308.12,30l-6.71-2.37V25.06h17.66v2.76c-4,.49-6,1.58-9.17,9.67L298,71.23Z"/><path class="cls-1" d="M190.91,63.93A13.77,13.77,0,0,1,184,65.71c-4.44,0-8.48-2.47-8.39-8.58L176,31.27h14.74l.2-1.6h0l1-8.1-1.88-.34-1.41,3.09-.8.68-11.61.45h-.12V13.71l-5.72,1-2.47,11.15-8.09.79v3.85c4.44,0,8.09.39,8.09,4.64s-.39,17.56-.39,22.89c0,10.06,3.85,13.81,10.26,13.81,5.52,0,10.06-2.27,14.21-5.62Z"/><path class="cls-1" d="M432.44,63.93a13.77,13.77,0,0,1-6.91,1.78c-4.44,0-8.48-2.47-8.39-8.58l.4-25.85h14.63l.2-1.6h0l1-8.1-1.88-.34-1.41,3.09-.8.68-11.61.45h0V13.71l-5.72,1-2.47,11.15-8.09.79v3.85c4.44,0,8.09.39,8.09,4.64s-.39,17.56-.39,22.89c0,10.06,3.85,13.81,10.26,13.81,5.52,0,10.06-2.27,14.21-5.62Z"/><path class="cls-1" d="M154.18,24.47h0a16.37,16.37,0,0,0-4.93-.59c-6.91,0-14.11,10.85-14.11,10.85,0-6,.2-11.15.2-11.15h-.79l-14.11,5.23v2.37c5.33,0,7,4.83,7,13V65.71l-6.51,2.47v2.56h22.68v-2.5L137.22,66l-1.89-2.37V42.52c0-6.51,5.13-10.16,10.65-10.16a10.54,10.54,0,0,1,3.28.61l1.54,2.28,1.9.16,1.46-10.94Z"/><path class="cls-1" d="M515,24.47h0a16.38,16.38,0,0,0-4.93-.59c-6.91,0-14.11,10.85-14.11,10.85,0-6,.2-11.15.2-11.15h-.79l-14.11,5.23v2.37c5.33,0,7,4.83,7,13V65.71l-6.51,2.47v2.56h22.68v-2.5L498.06,66l-1.89-2.37V42.52c0-6.51,5.13-10.16,10.65-10.16a10.53,10.53,0,0,1,3.28.61l1.54,2.28,1.9.16L515,24.47Z"/><path class="cls-1" d="M806.47,45.19c0,13.71,7.79,19.44,16.67,19.44,5.52,0,12.13-2.27,12.13-2.27l1,1.87c-2.37,2.37-9,7.4-17.26,7.4-11.25,0-21.31-8.38-21.31-23.78,0-14,9.67-24.17,21.71-24.17,9.37,0,16.67,5.62,16.67,16.28a30,30,0,0,1-.49,5.23ZM821,41.44c4.74-.2,6.41-1.08,6.41-5.92,0-4.14-3-7.3-9.27-7.3-6.61,0-11.64,5.82-11.64,13.71Z"/><path class="cls-1" d="M739.56,63.45l1.89,2.37L747.83,68l-.18,2.5h-22.4V68l6.51-2.47V43.11C731.75,34,730,31,724.65,31V28.6l14.41-5.23h.79s-.3,6.81-.3,13.92Z"/><path class="cls-1" d="M770.33,24.85v2.57l-6.61,2.17,11,29.91L786,29.78l-6.91-2.37V24.85h17.53v2.76c-2.57,0-5.72,1.28-9.18,9.67L775,71h-4.71L756.5,34.81c-2.17-5.23-4.64-7.2-7.79-7.2V24.85Z"/><path class="cls-1" d="M886.08,69.85a4,4,0,0,1-2.57-3.36l-.59-9.38h4.34c1.18,6.42,5.53,10.56,11.15,10.56s8-3,8-6.91c0-3.75-3.06-5.72-6.81-7.7l-5-2.56c-7.21-3.65-10.76-6.61-10.76-13.72,0-8.88,6.42-13.13,16.38-13.13a31.1,31.1,0,0,1,12.44,2.67l-1.28,11.55h-4c0-7.21-3-9.87-9-9.87-4,0-7.8,1.58-7.8,5.53,0,3.16,1.28,4.54,9.08,8.59L904,44.39c8.09,4.14,10.36,7.6,10.36,14.31,0,8.09-8.09,12.93-16,12.93C893.38,71.63,888.94,71,886.08,69.85Z"/><path class="cls-1" d="M988.71,34.81c-2.27-5.23-4.64-7.2-7.8-7.2V24.85h21.29v2.57l-6.61,2.17,11.35,29.91,10.36-29.71-6.91-2.37V24.85h18.36v2.76c-2.57,0-6.22,1.28-9.38,9.67l-11.5,31.39c-6.42,16.78-14.16,25.66-26,25L980.69,84a27.11,27.11,0,0,0,7.6.3c5.71-.41,11.3-6.16,13.62-13.72Z"/><path class="cls-1" d="M713.9,65.82,712,63.45l.09-25c0-11.54-7.5-14.8-15.19-14.8-6.51,0-15.69,7.6-15.69,7.6,0-4.14.2-7.89.2-7.89h-.79l-14.41,5.23V31c5.53,0,7,4.93,7,13.81V65.51L666.73,68v2.56h22.68l.18-2.5-6.38-2.23-1.89-2.37V35.13A12.75,12.75,0,0,1,691,30.49c6.41,0,13,2.27,13,13.22l-.3,21.89L697.42,68v2.56H720.1l.18-2.5Z"/><path class="cls-1" d="M977.26,63.74a13.77,13.77,0,0,1-6.91,1.78c-4.44,0-8.48-2.47-8.38-8.59l.39-25.85h12.53l.2-1.6h0l1-8.1L974.2,21l-1.41,3.09-.8.68-9.5.45h0V13.52l-5.72,1-2.47,11.15-8.09.79v3.85c4.44,0,8.09.39,8.09,4.64s-.39,17.56-.39,22.89c0,10.06,3.85,13.81,10.26,13.81,5.52,0,10.06-2.27,14.21-5.62Z"/><path class="cls-1" d="M877.35,24.27h0a16.34,16.34,0,0,0-4.93-.59c-6.91,0-14.11,10.85-14.11,10.85,0-6,.2-11.15.2-11.15h-.79l-14.11,5.23V31c5.33,0,7,4.83,7,13V65.51L844.1,68v2.56h22.68V68l-6.38-2.23-1.89-2.37V42.33c0-6.51,5.13-10.16,10.66-10.16a10.51,10.51,0,0,1,3.28.61L874,35.06l1.9.15,1.46-10.94Z"/><path class="cls-1" d="M735.48,15.81c-1.13,0-6.17-5.57-6.17-6.63s5-6.72,6.17-6.72,6.18,5.68,6.18,6.72S736.61,15.81,735.48,15.81Z"/><path class="cls-1" d="M936.93,63.45l1.89,2.37L945.2,68l-.18,2.5h-22.4V68l6.51-2.47V43.11C929.12,34,927.35,31,922,31V28.6l14.41-5.23h.79s-.3,6.81-.3,13.92Z"/><path class="cls-1" d="M656.38,48.61c0,17.07-12.14,22.7-23.79,22.7-17.47,0-24.67-8.19-24.67-23.39V19.19c0-8.39-2.27-10.27-8.88-10.56V5.38H626v3l-9.18,2.86V43.57c0,19.54,7.9,22.4,16.88,22.4,9.37,0,16.48-4.34,16.48-20.23V11.17l-8.88-2.69V5.35H665V8.88L658.26,10l-1.88,2.36V48.61Z"/><path class="cls-1" d="M932.85,15.81c-1.13,0-6.18-5.57-6.18-6.63s5-6.72,6.18-6.72S939,8.14,939,9.18,934,15.81,932.85,15.81Z"/></svg>