<svg id="Layer_1" data-name="Layer 1" xmlns="http://www.w3.org/2000/svg" viewBox="0 0 201.1 25.5"><defs><style>.cls-1{fill:#fff;}</style></defs><title>northwestern</title><path class="cls-1" d="M23,3.3V2H16.3l-.1,1.3,1.4.2,1.2,1.4V18.8h-.2L5,1.9S3.5,2,2.5,2C1.2,2,0,1.9,0,1.9V3.1c1.3.1,2.5.5,2.5,2.1V23.3l-2.3.5v1.3H7l.1-1.3-1.4-.2L4.5,22.2V7.1h.1l14.8,18h1.3V3.8Z"/><path class="cls-1" d="M84,22.2V13.9c0-4.2-2.7-5.4-5.5-5.4-2.3,0-5.7,2.7-5.7,2.7V6.3c0-2.2.1-4.9.2-5.9L72.6,0,67.4,1.8v.8c1.7,0,2.5,1.3,2.5,3.9V23.2l-2.3.6v1.3h7.6l.1-1.3L74,23.6l-1.2-1.4V12.5a5.16,5.16,0,0,1,3.6-1.6c2.6,0,4.8.8,4.8,4.7v7.6l-2.3.6v1.3h7.6l.1-1.3-1.4-.2Z"/><path class="cls-1" d="M46.8,12.3a32.42,32.42,0,0,1,.1-3.6l-.3-.3-5,1.9v.8c1.9,0,2.5,1.7,2.5,4.6v7.5l-2.3.6v1.3h7.5l.1-1.3L48,23.6l-1.2-1.4V15.1a3.57,3.57,0,0,1,3.8-3.6,4.28,4.28,0,0,1,1.8.5l.4-.3.7-3a6.28,6.28,0,0,0-1.8-.2c-2.4,0-4.9,3.8-4.9,3.8"/><path class="cls-1" d="M32.1,23.9c-3.5,0-5.4-3.4-5.4-7.4s1.5-6.6,4.5-6.6c3.4,0,5.5,3.3,5.5,7.3s-1.6,6.7-4.6,6.7M31.6,8.5c-4,0-8.2,2.9-8.2,8.6s4,8.4,8.2,8.4a8.49,8.49,0,0,0,8.3-8.7c0-5.7-4.1-8.3-8.3-8.3"/><path class="cls-1" d="M198.6,22.2V13.8c0-4.1-2.7-5.3-5.4-5.3-2.3,0-5.6,2.7-5.6,2.7a17,17,0,0,1,.1-2.5l-.3-.3-5.1,1.9v.8c2,0,2.5,1.8,2.5,4.9v7.2l-2.3.6v1.3h7.6l.1-1.3-1.4-.2-1.2-1.4V12.6A4.47,4.47,0,0,1,191,11c2.3,0,4.6.8,4.6,4.7v7.6l-2.3.6v1.3h7.6l.1-1.3-1.4-.2Z"/><path class="cls-1" d="M105.9,9.8l2.4.8-3.9,10.6L101,10.6l2.5-.8V8.9H96v1a1.9,1.9,0,0,1,2.1,1.9,7.72,7.72,0,0,1-.6,2.8l-2.8,6.7L91.5,10.7,94,9.8V8.9H86.2v1c1.1,0,1.9.9,2.5,2.6l4.7,12.9h1.1l4.6-11.1,4,11.1h1.1l5.3-13.7a3.33,3.33,0,0,1,.3-.6l1.1-.9a12.29,12.29,0,0,1,1.3-.2V9h-6.3Z"/><path class="cls-1" d="M119.5,10.1c2.2,0,3.3,1.1,3.3,2.6v1l-.8,1.1-1.5.1-5.2.2c.1-2.9,1.9-5,4.2-5M121.3,23c-3.2,0-5.9-2-5.9-6.9h10.3a9.88,9.88,0,0,0,.2-1.9c0-3.8-2.6-5.8-5.9-5.8-4.3,0-7.7,3.6-7.7,8.6,0,5.5,3.6,8.4,7.6,8.4a9.4,9.4,0,0,0,6.1-2.6l-.3-.7a12.82,12.82,0,0,1-4.4.9"/><path class="cls-1" d="M160.6,10.1c2.2,0,3.3,1.1,3.3,2.6v1l-.8,1.1-1.5.1-5.2.2c.1-2.9,1.9-5,4.2-5M162.4,23c-3.2,0-5.9-2-5.9-6.9h10.3a9.88,9.88,0,0,0,.2-1.9c0-3.8-2.6-5.8-5.9-5.8-4.3,0-7.7,3.6-7.7,8.6,0,5.5,3.6,8.4,7.6,8.4a9.4,9.4,0,0,0,6.1-2.6l-.4-.7a11.41,11.41,0,0,1-4.3.9"/><path class="cls-1" d="M135.8,15.8l-1.6-.8c-2.8-1.4-3.2-1.9-3.2-3,0-1.4,1.3-2,2.8-2,2.1,0,3.2.9,3.2,3.5h1.4l.5-4.1a11.31,11.31,0,0,0-4.4-.9c-3.5,0-5.8,1.5-5.8,4.7,0,2.5,1.3,3.6,3.8,4.9l1.8.9c1.3.7,2.4,1.4,2.4,2.7s-.8,2.5-2.8,2.5-3.5-1.5-4-3.7h-1.5l.2,3.3a1.5,1.5,0,0,0,.9,1.2,12.93,12.93,0,0,0,4.4.6c2.8,0,5.7-1.7,5.7-4.6-.1-2.5-1-3.7-3.8-5.2"/><path class="cls-1" d="M63.7,23.3a2.78,2.78,0,0,1-3-3l.1-9.2H66l.1-.6h0l.3-2.9-.7-.1-.5,1.1-.2.3L60.9,9V5.2l-.2-.3-1.8.3-.9,4-2.9.3v1.4h2.2l.7.8v.2c0,2.2-.1,7.3-.1,8.8,0,3.6,1.4,4.9,3.6,4.9a7.48,7.48,0,0,0,5-2l-.4-.8a7.69,7.69,0,0,1-2.4.5"/><path class="cls-1" d="M149.6,23.3a2.78,2.78,0,0,1-3-3l.1-9.2h5.2l.1-.6h0l.3-2.9-.7-.1-.5,1.1-.1.3-4.2.1V5.2l-.2-.3-1.8.3-.9,4-2.9.3v1.4h2.2l.7.8v.2c0,2.2-.1,7.3-.1,8.8,0,3.6,1.4,4.9,3.6,4.9a7.48,7.48,0,0,0,5-2l-.4-.8a6.77,6.77,0,0,1-2.4.5"/><path class="cls-1" d="M174,12.3a32.41,32.41,0,0,1,.1-3.6l-.3-.3-5,1.9v.8c1.9,0,2.5,1.7,2.5,4.6v7.5l-2.3.6v1.3h7.5l.1-1.3-1.4-.2L174,22.2V15.1a3.57,3.57,0,0,1,3.8-3.6,4.28,4.28,0,0,1,1.8.5l.4-.3.7-3a6.28,6.28,0,0,0-1.8-.2c-2.4,0-4.9,3.8-4.9,3.8"/></svg>